<?xml version="1.0" standalone="no"?>
<!DOCTYPE svg PUBLIC "-//W3C//DTD SVG 20010904//EN"
 "http://www.w3.org/TR/2001/REC-SVG-20010904/DTD/svg10.dtd">
<svg version="1.0" xmlns="http://www.w3.org/2000/svg"
 width="594.000000pt" height="749.000000pt" viewBox="0 0 594.000000 749.000000"
 preserveAspectRatio="xMidYMid meet">

<g transform="translate(0.000000,749.000000) scale(0.100000,-0.100000)"
fill="#000000" stroke="none">
<path d="M1535 7473 c-269 -57 -483 -255 -554 -513 -26 -94 -29 -272 -5 -364
70 -279 319 -496 615 -536 357 -49 710 188 799 536 42 165 20 349 -62 507 -49
96 -177 231 -270 285 -152 90 -351 122 -523 85z"/>
<path d="M436 6004 c-3 -16 -93 -526 -201 -1134 -191 -1081 -221 -1247 -231
-1282 -5 -17 50 -18 1060 -18 1005 0 1065 1 1070 18 3 9 68 343 146 742 173
893 177 910 181 914 2 2 481 169 1064 371 583 202 1074 373 1090 380 31 12
-112 14 -3086 31 l-1087 7 -6 -29z"/>
<path d="M5181 5971 c-11 -7 -5 -11 25 -16 132 -21 235 -73 314 -162 89 -98
126 -211 117 -351 -14 -237 -220 -431 -457 -432 -202 -1 -387 144 -453 355
-21 66 -22 68 -25 34 -8 -95 58 -259 143 -356 263 -300 766 -228 937 134 74
157 73 317 -3 472 -95 193 -281 316 -494 327 -51 3 -96 1 -104 -5z"/>
<path d="M5097 5721 c-27 -33 -52 -61 -56 -61 -5 0 -39 11 -76 25 -37 14 -72
24 -76 23 -5 -2 11 -34 37 -71 51 -77 53 -62 -22 -159 -20 -27 -32 -48 -27
-48 4 0 40 9 78 20 38 11 73 20 77 20 4 0 29 -32 55 -72 l48 -71 5 88 5 89 79
23 c43 12 81 24 83 27 2 2 -31 17 -74 34 l-78 29 -5 83 -5 83 -48 -62z"/>
<path d="M4321 5368 c-44 -84 -86 -162 -94 -172 -14 -18 -23 -15 -213 87 -109
58 -202 103 -205 101 -16 -9 -100 -177 -95 -189 2 -7 69 -47 148 -88 79 -42
166 -89 195 -104 l52 -29 -304 -569 c-168 -314 -305 -575 -305 -581 0 -13 183
-114 191 -105 4 3 142 260 308 571 166 311 305 568 309 571 4 4 97 -42 207
-102 110 -60 203 -109 206 -109 3 0 29 45 58 99 l51 99 -205 108 c-113 60
-205 111 -205 114 0 3 40 82 90 175 49 94 90 173 90 176 0 7 -174 99 -188 99
-6 0 -47 -69 -91 -152z"/>
<path d="M4899 4643 l-75 -128 -157 -5 -157 -5 75 -130 c41 -71 75 -133 75
-137 0 -4 -33 -65 -74 -135 l-75 -128 157 -5 156 -5 73 -125 c40 -69 77 -125
82 -125 6 0 43 56 83 125 l73 125 157 5 156 5 -74 125 c-40 69 -73 130 -74
137 0 6 33 69 74 140 l74 128 -157 3 -156 3 -74 129 c-41 72 -77 130 -81 130
-3 0 -40 -57 -81 -127z m109 -93 c12 -21 22 -41 22 -44 0 -4 -22 -6 -50 -6
-27 0 -50 3 -50 6 0 10 43 84 49 84 3 0 16 -18 29 -40z m-238 -137 c0 -5 -11
-25 -24 -46 -25 -41 -30 -39 -60 21 l-17 32 51 0 c27 0 50 -3 50 -7z m363 -77
c26 -46 47 -89 47 -96 0 -7 -21 -50 -47 -96 l-48 -84 -106 0 -105 0 -50 86
c-27 47 -48 91 -46 98 2 6 24 48 49 94 l47 82 105 0 106 0 48 -84z m146 62
c-7 -13 -19 -34 -27 -46 l-15 -24 -24 39 c-12 21 -23 41 -23 46 0 4 23 7 50 7
49 0 50 -1 39 -22z m-530 -294 c12 -19 21 -37 21 -40 0 -2 -23 -4 -51 -4 l-50
0 22 40 c13 22 26 40 30 40 4 0 16 -16 28 -36z m519 -4 l23 -40 -51 0 c-27 0
-50 3 -50 6 0 11 41 74 48 74 4 0 17 -18 30 -40z m-259 -170 c-13 -22 -26 -40
-29 -40 -3 0 -16 18 -29 40 l-22 40 51 0 51 0 -22 -40z"/>
<path d="M2950 3601 c0 -5 115 -609 255 -1343 141 -733 292 -1526 335 -1763
44 -237 83 -439 86 -449 6 -18 22 -19 548 -12 297 3 727 9 953 13 l413 6 5 31
c2 17 90 803 195 1746 105 943 193 1730 196 1748 l6 32 -1496 0 c-891 0 -1496
-4 -1496 -9z m2806 -144 c5 -5 -16 -239 -32 -354 l-6 -43 -211 0 -210 0 6 137
c4 75 7 165 7 199 l0 64 173 3 c195 4 265 2 273 -6z m-1266 -197 l0 -200 -279
0 -279 0 -6 83 c-3 45 -7 132 -8 192 l-3 110 115 6 c63 3 193 6 288 7 l172 2
0 -200z m677 78 c-4 -66 -7 -156 -7 -200 l0 -78 -265 0 -265 0 0 200 0 200
272 0 271 0 -6 -122z m-1396 17 c4 -49 9 -136 12 -192 l5 -103 -288 0 -287 0
-23 123 c-12 67 -28 152 -35 189 l-13 67 67 4 c36 2 176 3 311 3 l245 -1 6
-90z m22 -467 c3 -18 9 -120 13 -225 l7 -193 -242 0 c-241 0 -241 0 -251 23
-5 12 -23 101 -40 197 -17 96 -33 187 -36 203 l-6 27 275 0 275 0 5 -32z m699
-189 c2 -121 1 -223 -1 -225 -2 -2 -120 -4 -261 -4 -194 0 -260 3 -268 13 -5
6 -13 108 -17 225 l-7 212 275 0 276 0 3 -221z m660 9 c-2 -117 -5 -219 -7
-226 -4 -10 -60 -12 -257 -10 l-253 3 -3 210 c-1 115 0 215 2 222 4 10 63 13
264 13 l258 0 -4 -212z m548 195 c0 -21 -37 -340 -46 -395 l-6 -38 -179 0
-179 0 0 133 c0 74 3 175 6 225 l7 92 198 0 c183 0 199 -1 199 -17z m-1876
-665 c3 -51 8 -141 11 -200 l6 -108 -210 0 -210 0 -10 53 c-25 128 -61 325
-61 335 0 9 64 12 234 12 l234 0 6 -92z m669 25 c4 -38 7 -128 7 -200 l0 -133
-259 0 -259 0 -6 138 c-3 75 -9 165 -11 200 l-6 62 264 0 264 0 6 -67z m647
-87 c0 -84 -3 -174 -6 -200 l-7 -46 -243 0 -244 0 0 200 0 200 250 0 250 0 0
-154z m490 127 c0 -16 -9 -102 -20 -193 -11 -91 -20 -168 -20 -172 0 -5 -71
-8 -157 -8 l-158 0 3 187 c1 104 4 194 7 201 3 9 48 12 175 12 l170 0 0 -27z
m-1777 -665 c4 -79 7 -171 7 -206 l0 -63 -167 7 c-93 3 -169 7 -170 8 -2 2
-73 378 -73 389 0 4 89 7 198 7 l199 0 6 -142z m647 -63 l0 -205 -244 0 -245
0 -5 53 c-3 28 -8 121 -12 205 l-6 152 256 0 256 0 0 -205z m626 3 c-4 -111
-10 -206 -12 -210 -6 -10 -187 -10 -352 -1 l-122 6 0 204 0 203 246 0 247 0
-7 -202z m444 193 c0 -18 -41 -367 -45 -388 -5 -22 -9 -23 -137 -23 l-131 0 7
92 c3 50 6 144 6 210 l0 118 150 0 c83 0 150 -4 150 -9z m-1697 -608 c4 -38 9
-141 13 -230 l7 -163 -130 0 -130 0 -37 208 c-21 114 -40 217 -43 230 l-5 22
160 0 159 0 6 -67z m625 -165 l2 -228 -230 0 c-176 0 -232 3 -235 13 -6 18
-21 438 -16 443 3 2 111 3 240 2 l236 -3 3 -227z m619 218 c0 0 -2 -100 -5
-221 l-7 -220 -226 -3 -226 -2 -6 91 c-8 107 -9 353 -2 360 4 4 467 -1 472 -5z
m382 -38 c0 -24 -10 -124 -22 -223 l-22 -180 -102 -3 -103 -3 0 89 c0 49 3
150 7 225 l6 137 119 0 118 0 -1 -42z m-1595 -675 c4 -71 8 -168 9 -218 l2
-90 -87 -3 -86 -3 -11 53 c-6 29 -22 118 -36 198 -15 80 -29 155 -32 168 -5
22 -5 22 115 22 l120 0 6 -127z m606 -87 l0 -215 -42 -6 c-24 -3 -124 -5 -223
-3 l-180 3 -6 90 c-4 50 -9 147 -13 218 l-6 127 235 0 235 0 0 -214z m590 25
c0 -104 -3 -203 -6 -220 l-6 -31 -219 0 -219 0 0 220 0 220 225 0 225 0 0
-189z m336 152 c-3 -21 -15 -116 -26 -211 -11 -96 -23 -178 -26 -183 -3 -5
-36 -9 -75 -9 l-69 0 0 183 c0 100 3 199 6 220 l7 37 94 0 95 0 -6 -37z"/>
<path d="M94 3463 l-71 -4 29 -132 c16 -73 177 -820 359 -1662 181 -841 333
-1538 337 -1548 4 -10 98 522 226 1275 120 711 222 1302 226 1313 6 16 57 -48
276 -340 1122 -1505 1718 -2302 1740 -2329 16 -19 24 -24 20 -12 -4 11 -250
782 -547 1714 -297 933 -545 1704 -550 1714 -9 17 -51 18 -992 16 -540 -1
-1014 -4 -1053 -5z"/>
</g>
</svg>
